<svg width="18" height="18" viewBox="0 0 18 18" fill="none" xmlns="http://www.w3.org/2000/svg">
<g clip-path="url(#clip0_1_348)">
<path d="M17.9522 0.352207L13.7596 5.43933C13.6773 5.3736 13.5895 5.31359 13.4988 5.25928L12.2826 4.54194L11.8376 3.11012L17.6885 0.0235445C17.7792 -0.0221825 17.8898 0.000680968 17.9522 0.0778453C18.0174 0.157867 18.0145 0.272185 17.9522 0.352207Z" fill="white"/>
<path d="M9.7459 3.59889L9.53612 4.0533C5.54195 4.34481 5.01469 7.34279 4.50159 10.2465C4.14158 12.287 3.79574 14.2476 2.43222 15.668C2.41521 14.5276 1.87661 13.5359 1.51376 12.9929C1.25296 12.6014 1.2643 12.0984 1.54211 11.7383C2.30182 10.7552 2.77806 9.4548 3.23729 8.19445C4.16426 5.65089 5.12524 3.02159 8.44474 2.81296C9.01134 2.77581 9.5301 3.09875 9.74554 3.59889H9.7459Z" fill="white"/>
<path d="M15.7187 9.00041L13.8733 6.1882C13.7231 5.95956 13.519 5.76522 13.2837 5.62804L11.9258 4.82782L11.1746 2.41286C11.1463 2.32712 11.0726 2.26996 10.9847 2.26425C10.8996 2.25853 10.8146 2.30712 10.7777 2.38714L9.81393 4.46772C5.92747 4.63062 5.43706 7.39424 4.92113 10.3208C4.40521 13.2444 3.87227 16.2653 0.141734 17.5828C0.045352 17.6199 -0.0141779 17.72 0.00283066 17.8229C0.0198392 17.9257 0.107717 18 0.212603 18H12.5325C12.2688 16.8312 11.4241 14.5477 8.90964 14.5334C8.79058 14.5334 8.69703 14.4362 8.69703 14.319C8.69703 14.2018 8.79341 14.1047 8.90964 14.1047H8.91247C10.8004 14.1133 12.2178 15.3307 12.8244 17.4085C12.7394 15.3707 12.0109 13.6817 10.653 12.3785C10.5198 12.2499 10.3695 12.0956 10.2732 11.9155C9.96417 11.3353 9.99535 10.618 10.3865 9.612L10.6445 9.8978C10.8178 10.0725 11.4499 9.82349 12.4758 10.4065L13.7514 11.1296C14.5976 11.6101 15.6833 11.1514 15.9228 10.1779C16.0192 9.77491 15.9455 9.34622 15.7187 9.00041ZM11.3277 7.88009C10.9989 7.88009 10.7324 7.60859 10.7324 7.27993C10.7324 6.95126 10.9989 6.67976 11.3277 6.67976C11.6565 6.67976 11.9202 6.94841 11.9202 7.27993C11.9202 7.61145 11.6537 7.88009 11.3277 7.88009Z" fill="white"/>
</g>
<defs>
<clipPath id="clip0_1_348">
<rect width="18" height="18" fill="white"/>
</clipPath>
</defs>
</svg>
